
<svg viewBox="0 0 234 234" fill="none" xmlns="http://www.w3.org/2000/svg"><g clip-path="url(#a)"><path d="M146.5 148s-5.5-20.3-4.5-33.5C175.5 71 208.5 83.4 233.5 39c-4 35.5-32.5 61.5-32.5 61.5 11.5-2 18-9.5 32.5-17-13 27-36.5 41-36.5 41 6.5-1.5 10.5-4.5 22.5-11.5-29 58.5-73 35-73 35ZM87 148s5.5-20.3 4.5-33.5C58 71 25 83.4 0 39c4 35.5 32.5 61.5 32.5 61.5-11.5-2-18-9.5-32.5-17 13 27 36.5 41 36.5 41C30 123 26 120 14 113c29 58.5 73 35 73 35Z" fill="#8CD9FF"/><path d="M176 193.5c0 8.4-5.5 16.8-16.2 23.5a82.2 82.2 0 0 1-42.8 11c-17 0-32.1-4.3-42.8-11C63.5 210.3 58 202 58 193.5s5.5-16.8 16.2-23.5a82.2 82.2 0 0 1 42.8-11c17 0 32.1 4.3 42.8 11 10.7 6.7 16.2 15.1 16.2 23.5Z" fill="#fff" stroke="#5E647B" stroke-width="12"/><path d="M70.9 171.5c9.5-23 21.4-35.5 21.4-74.5h50.3c0 40 9.9 49.5 22 74.7 2.3 4.8 1.2 3.9-2 6.3-46.6 37-87.1 3-90.8 0-3.8-3-2.5-2.6-1-6.5Z" fill="#fff" stroke="#5E647B" stroke-width="12" stroke-linecap="round"/><path d="M69 54.3a48.2 48.2 0 1 1 69.2 43.3l-3.8 1c-3.5.7-9.2 1.4-17.3 1.4a89.7 89.7 0 0 1-21.8-2.6A48.3 48.3 0 0 1 69 54.3Z" fill="#fff" stroke="#5E647B" stroke-width="12"/></g><defs><clipPath id="a"><path fill="#fff" d="M0 0h234v234H0z"/></clipPath></defs></svg>