<svg width="72" height="72" viewBox="0 0 72 72" fill="none" xmlns="http://www.w3.org/2000/svg">
<path fill-rule="evenodd" clip-rule="evenodd" d="M42.451 15.5912L32.513 4C31.0744 6.73107 29.6798 11.5512 31.6849 15.0309C30.7117 15.1175 29.7816 15.2821 29.0622 15.5708C24.4725 17.4127 19.4364 22.1714 16.9612 32.0721C16.2445 34.939 14.9545 36.3119 13.4214 37.9436C11.9751 39.4828 10.3125 41.2522 8.71057 44.7232C5.41031 51.8737 14.317 59.0243 20.8115 52.5297C24.4629 48.8784 27.6545 47.371 30.3341 46.1055C34.1908 44.284 36.9868 42.9635 38.5662 36.4725C39.3177 39.5002 39.0171 46.6458 31.8034 51.0057C24.5897 55.3657 23.0869 64.5499 23.2371 67.2749H64.265C64.265 41.4044 60.8399 19.0524 42.451 15.5912Z" fill="#F8F8F8" stroke="black" stroke-width="2" stroke-linejoin="round"/>
<circle cx="27" cy="30" r="2" fill="black"/>
</svg>
