<svg width="72" height="72" viewBox="0 0 72 72" fill="none" xmlns="http://www.w3.org/2000/svg">
<path d="M47.0048 17.8952C47.0048 21.0552 45.6595 23.9009 43.5105 25.891L49.0476 29.7995V36.9619H43.627C43.8884 40.2819 46.0186 43.6045 48.775 46.5026C51.7002 49.5783 55.2196 52.0589 57.5569 53.3945L57.9 53.5905V64.2H15V53.5905L15.3431 53.3945C17.6804 52.0589 21.1998 49.5783 24.125 46.5026C26.8814 43.6045 29.0116 40.2819 29.273 36.9619H23.8524V29.7995L29.0092 26.1594C26.6857 24.1613 25.2143 21.2001 25.2143 17.8952C25.2143 11.878 30.0923 7 36.1095 7C42.1268 7 47.0048 11.878 47.0048 17.8952Z" fill="#4D4D4D" stroke="black" stroke-width="2" stroke-linejoin="round"/>
</svg>
