<svg width="72" height="72" viewBox="0 0 72 72" fill="none" xmlns="http://www.w3.org/2000/svg">
<path d="M28.1743 15.635C30.2365 14.8416 31.7 12.8417 31.7 10.5C31.7 7.46243 29.2376 5 26.2 5C23.1624 5 20.7 7.46243 20.7 10.5C20.7 13.307 22.8029 15.6229 25.5192 15.9583L23.0664 35.8L11.2424 25.5305C12.3236 24.5261 13 23.0921 13 21.5C13 18.4624 10.5376 16 7.5 16C4.46243 16 2 18.4624 2 21.5C2 24.5376 4.46243 27 7.5 27C8.03472 27 8.55162 26.9237 9.0404 26.7814L15.2 47.9L21.5697 58.3231L15.2 59.45V67.7L57.0846 67.7V59.45L50.6331 58.3185L57 47.9L63.1596 26.7814C63.6484 26.9237 64.1653 27 64.7 27C67.7376 27 70.2 24.5376 70.2 21.5C70.2 18.4624 67.7376 16 64.7 16C61.6624 16 59.2 18.4624 59.2 21.5C59.2 23.0921 59.8764 24.5261 60.9576 25.5305L49.1336 35.8L46.6808 15.9583C49.3971 15.6229 51.5 13.307 51.5 10.5C51.5 7.46243 49.0376 5 46 5C42.9624 5 40.5 7.46243 40.5 10.5C40.5 12.8417 41.9635 14.8416 44.0257 15.635L36.1 33.6L28.1743 15.635Z" fill="#4D4D4D" stroke="black" stroke-width="2" stroke-linejoin="round"/>
</svg>
