<svg width="72" height="72" viewBox="0 0 72 72" fill="none" xmlns="http://www.w3.org/2000/svg">
<path d="M38.1019 39.1613H33.7015C33.7015 31.0814 36.1522 23.015 41.5739 17.1105C42.4235 15.9541 42.9253 14.5263 42.9253 12.9813C42.9253 9.12564 39.7997 6 35.944 6C32.0883 6 28.9627 9.12564 28.9627 12.9813C28.9627 14.8836 29.7236 16.6082 30.9575 17.8674C26.5965 20.9763 18.4907 29.3096 18.4907 39.7431C18.4907 50.2723 26.7459 54.5351 31.0765 55.4102L15 58.2542V66.5049L56.888 66.5049V58.2542L40.4302 55.3678C44.8099 54.4038 52.8156 50.112 52.8156 39.7431C52.8156 32.9538 49.6528 26.9017 45.8025 22.5013C41.5739 25.8016 38.1019 33.5022 38.1019 39.1613Z" fill="#4D4D4D" stroke="black" stroke-width="2" stroke-linejoin="round"/>
</svg>
