<svg width="72" height="72" viewBox="0 0 72 72" fill="none" xmlns="http://www.w3.org/2000/svg">
<path fill-rule="evenodd" clip-rule="evenodd" d="M32.2251 4H38.8249L38.9967 9.49978H45.4246V16.0995H39.203L39.5052 23.5715C39.6258 23.4294 39.75 23.2901 39.878 23.1541C45.8873 16.7673 54.797 13.3686 61.374 18.8494C67.9737 24.3492 67.9737 36.9987 58.8867 44.3147C53.7392 48.4589 49.1285 52.4541 49.3557 58.2973L58.6015 59.5478V67.7975H12.4485V59.5478L21.6943 58.2973C21.9215 52.4541 17.3108 48.4589 12.1633 44.3147C3.07628 36.9987 3.07628 24.3492 9.67602 18.8494C16.253 13.3686 25.1627 16.7673 31.172 23.1541C31.3 23.2901 31.4242 23.4294 31.5448 23.5715L31.847 16.0995H25.6254V9.49978H32.0533L32.2251 4ZM26.0082 29.2695C30.0414 35.8758 30.5752 43.5984 30.5752 46.9568C28.5536 46.9605 20.9328 43.6078 16.8979 38.1038C13.9931 34.1412 13.2357 28.2622 15.7258 25.9799C18.2158 23.6975 23.4875 25.1405 26.0082 29.2695ZM45.0418 29.2695C41.0086 35.8758 40.4748 43.5984 40.4748 46.9568C42.4964 46.9605 50.1172 43.6078 54.1521 38.1038C57.0569 34.1412 57.8143 28.2622 55.3242 25.9799C52.8341 23.6975 47.5625 25.1405 45.0418 29.2695Z" fill="#F8F8F8" stroke="black" stroke-width="2" stroke-linejoin="round"/>
</svg>
