<svg width="72" height="72" viewBox="0 0 72 72" fill="none" xmlns="http://www.w3.org/2000/svg">
<path d="M15 7H26V13.6H30.4V7H42.5V13.6H46.9V7H57.9V16.9L49.1 23.5L51.3 43.3V53H36H28.8L21.6 53V43.3L23.8 23.5L15 16.9V7Z" fill="#F8F8F8"/>
<path d="M21.6 53L28.8 53H36H51.3L57.9 56.5V65.3H15V56.5L21.6 53Z" fill="#F8F8F8"/>
<path d="M49.1 23.5L57.9 16.9V7H46.9V13.6H42.5V7H30.4V13.6H26V7H15V16.9L23.8 23.5M49.1 23.5L51.3 43.3V53M49.1 23.5L36.5 23.5L23.8 23.5M23.8 23.5L21.6 43.3V53M51.3 53L57.9 56.5V65.3H15V56.5L21.6 53M51.3 53H36H28.8L21.6 53" stroke="black" stroke-width="2" stroke-linejoin="round"/>
</svg>
